# xmcd
#
# Track frame offsets:
#	182
#	18187
#	34677
#
# Disc length: 658 seconds
# Revision: 0
# Processed by: cddbd v1.5.2PL0 Copyright (c) Steve Scherf et al.
# Submitted via: dBpowerAMP V12.0
#
DISCID=16029003
DTITLE=Suzy Bogguss - Letting Go ~ CD Single [dBP-T1-FLAC]
DYEAR=1993
DGENRE=Country
TTITLE0=Letting Go
TTITLE1=Eat @ Joe's
TTITLE2=Let Goodbye Hurt
EXTD=
EXTT0=
EXTT1=
EXTT2=
PLAYORDER=
